<svg fill="#ED1C24" xmlns="http://www.w3.org/2000/svg" viewBox="0 0 1000 1000"><path d="M463.15 11.18c-89.1 8.52-165.99 34.99-233.68 80.12C23.65 228.97-48.18 493.96 60.26 715.21c48.35 99 125.01 175.43 224.47 224.47 187.86 92.55 413.02 55.02 561.52-93.47 148.49-148.5 186.02-373.66 93.47-561.52C863.74 130.2 716.63 28.68 545.11 12.1c-23.48-2.3-63.31-2.76-81.96-.92zm-59.86 293.07v99h-101.3v-198h101.3v99zm294.69 0v99h-101.3v-198h101.3v99zM448.65 574.08l51.34 51.34 51.8-51.8 51.8-51.8 35.68 35.68 35.68 35.68-51.8 51.8-51.8 51.8 51.8 51.8 51.8 51.8-35.68 35.69-35.45 35.46-50.88-50.42c-28.09-27.86-51.34-51.11-52.03-51.8-.69-.46-24.41 22.33-52.72 50.65l-51.8 51.8-35.69-35.69-35.69-35.69 51.8-51.8 51.8-51.8-51.8-51.8-51.8-51.8 35-34.99c19.34-19.34 35.68-35.22 36.37-35.22s24.18 23.02 52.27 51.11z"/></svg>