<svg fill="#fff" viewBox="0 0 2014 1674.641" xmlns="http://www.w3.org/2000/svg"><path d="M44.883 1173.3c0 169.58 92.136 317.37 229.08 396.59V776.36c-136.94 79.216-229.08 227.37-229.08 396.94zM1496.5 173.21c-338.54-181.18-640.46-181.19-978.98 0-115.34 61.726-232.1 201.31-232.1 348.66v1048h125.99v-1048c0-100.78 121.24-229.18 225.54-272.38 280.15-116.04 460-116.04 740.11 0 104.3 43.203 225.54 171.6 225.54 272.38v1048h125.99v-1048c0-147.36-116.76-286.94-232.1-348.66zM1740 776.38v793.53c136.94-79.214 229.08-227 229.08-396.59.001-169.57-92.133-317.73-229.08-396.94z"/><path d="M541.72 709.03h-70.645c-27.201 0-49.252 22.051-49.252 49.253v829.79c0 27.201 22.05 49.252 49.252 49.252h70.645c27.201 0 49.252-22.051 49.252-49.252v-829.79c0-27.202-22.05-49.253-49.252-49.253zM1542 709.03h-70.646c-27.2 0-49.252 22.051-49.252 49.253v829.79c0 27.201 22.052 49.252 49.252 49.252H1542c27.2 0 49.252-22.051 49.252-49.252v-829.79c-.001-27.202-22.052-49.253-49.252-49.253zM595.97 1132.8c4.322-.219 8.643-.184 12.965 0 .197 4.557 3.624 24.404 4.471 95.602 0 1.438.298 2.849.728 4.225.691 13.2-.668 21.337.868 26.298.386 12.904.053 25.834.158 38.746h10.467c10.735-37.493 8.785-86.788 9.941-115.01 1.07-3.103.614-6.426.868-9.634.615-2.041 1.597-9.992 1.753-11.519.368.377 1.113 1.131 1.481 1.508.079 4.827.295 5.098 2.007 12.833.342 0 1.034-.009 1.376-.009.421-1.771.877-3.515 1.315-5.277l.657-.009c.202 4.611-.719 9.38.684 13.859.491 4.374-.508 8.889.85 13.149.114 1.683.175 3.357.263 5.049.552-.92 1.122-1.85 1.692-2.77.052-13.129.408.674.894-17.479l1.227 2.209c.316.018.938.044 1.245.061 2.638-11.892 2.56-18.294 3.647-51.86 8.152-.21 16.314-.263 24.466.044.018 2.314-.018 4.681.78 6.89.677 13.255 1.433 10.704 2.016 18.926 1.554 2.913 2.279 3.212 5.295 20.714.394 0 1.183 0 1.578.009.454-9.931.998-1.96.964-13.184l.868.009c.096 3.734-.561 7.609.684 11.229.298 3.498-.307 7.127.868 10.519.307 3.498-.307 7.135.877 10.519.307 3.498-.307 7.127.877 10.519.368 3.787-.394 7.714.868 11.387.438 4.085-.465 8.319.877 12.281.298 3.498-.298 7.127.868 10.519.949 15.108 1.515 17.226 2.858 21.626.421-.412 1.262-1.227 1.692-1.639-.187-3.823.79-9.648 3.98-14.937.701 1.157 1.411 2.332 2.13 3.498l.07 1.648c.894 1.657 1.815 3.357 3.261 4.629.52-4.824.271-3.677 1.525-8.757.155-.87 1.114-8.042 1.552-15.709 1.21-3.691.491-7.609.85-11.405 1.341-3.962.43-8.196.877-12.272 0 0 6.76-64.946 7.004-68.375 1.008-2.77.728-5.742.728-8.617 1.727 0 3.471 0 5.225-.009 0 3.173-.377 6.443.701 9.494.152 3.522.148 41.365 1.753 46.478.447 4.076-.473 8.31.877 12.272.289 3.498-.281 7.118.85 10.51.612 11.986.925 9.898 2.016 17.383l1.718 1.613c.386-.395 1.157-1.175 1.543-1.569 1.113-3.427 2.27-6.908 2.06-10.572.351.377 1.043 1.122 1.394 1.49.307.982.631 1.972.982 2.954.009.824.035 1.648.07 2.472.736.912 1.499 1.841 2.279 2.744 1.695-6.242 1.537-5.465 2.367-9.923l1.569-1.499c-.026 1.455-.035 2.928-.044 4.392l1.709 1.534c2.593-15.316 1.515-32.185 4.646-59.933h.517c.257 2.44.455 5.251 2.656 12.053.04 1.752 2.071 29.42 6.46 44.391.377-.386 1.131-1.166 1.508-1.56 2.511-20.088.17 17.604 5.33-78.561l.622.009c.403 1.569.842 3.13 1.28 4.699.395-.377 1.175-1.148 1.569-1.534.153-5.981.067-4.293 1.201-9.362a232.72 232.72 0 0 1 19.627-.018c1.093 6.281 3.062 17.853 3.831 24.948l1.631-1.525c.133-3.59 1.852-14.417 2.919-17.453.377.377 1.14 1.122 1.516 1.499-.034 12.962.097 3.675.947 13.657.421.009 1.253.009 1.674.009 0-1.762.009-3.524.026-5.277h1.718c.237 4.602-.701 9.371.71 13.85.386 3.787-.412 7.732.877 11.405.298 3.498-.298 7.127.859 10.519.455 8.447 1.972 19.645 2.595 21.906-.347 7.057 9.094 35.294 9.888 54.043.429-.395 1.28-1.192 1.709-1.587.061-1.42.14-2.84.263-4.252.885-2.831.675-5.829.85-8.748 1.131-3.401.561-7.022.859-10.519 1.166-3.393.561-7.022.876-10.519 1.157-3.392.57-7.022.877-10.528.697-2.038 1.719-16.578 1.78-17.532.086-.331.978-5.454 1.788-8.924 2.042-3.033 3.515-6.399 5.26-9.599.324.368.964 1.122 1.289 1.499 2.896 10.614 5.277 40.7 5.277 40.701 1.101 16.794 2.417 23.952 2.866 28.779.412.394 1.245 1.175 1.657 1.569.071-.869 8.706-77.968 8.959-86.556.561-1.779 1.105-3.559 1.727-5.312.412.394 1.227 1.183 1.639 1.578.009.57.017 1.701.017 2.27.403 0 1.219-.009 1.622-.009 1.24-7.203 1.236-3.14 2.121-13.342 1.017-3.41.5-7.013.798-10.51.666-1.929.745-3.971.85-5.987 1.981-.017 3.98-.017 5.987-.061.738 15.014 3.226 81.388 5.452 98.881 2.794-5.344 3.327-18.194 3.313-23.046.526.92 1.061 1.841 1.604 2.779 1.005 8.595 1.291 4.766 1.955 12.124.412-.386 1.236-1.166 1.657-1.56.07-1.131.167-2.253.29-3.375 3.077-10.573 4.023-80.044 5.303-85.767 11.203-.333 22.415-.307 33.618-.026 2.519 9.333-.185 1.64 3.165 10.651l3.059-.105c3.706 11.86 4.661 36.592 6.136 41.086.237 3.743-.228 7.618 1.324 11.159 1.832-.973 3.532-4.164 5.768-2.27.311 1.769 1.139 5.743 1.674 7.74.096 1.99.052 4.006.342 5.987.955 1.779 3.182 1.078 4.839 1.35 2.515 9.18 4.175 17.629 4.865 22.318 3.942-2.424 4.424-5.052 6.049-11.527 1.105-1.981 2.621-3.682 4.252-5.251-.009-1.131-.009-2.262.009-3.384.386.377 1.149 1.131 1.534 1.508.333 1.797.754 3.577 1.21 5.365l1.446-1.552c.649-2.376 1.403-4.716 2.183-7.048.316.377.947 1.148 1.262 1.525 1.645 7.111.322 3.568 2.06 21.065.429-.395 1.271-1.175 1.692-1.56.026-1.999.07-3.997.21-5.987 1.481-4.83.263-9.949.868-14.902 1.639-6.285.123-12.877.877-19.285 1.683-7.451.07-15.218.877-22.792 1.674-7.451.07-15.227.868-22.8 1.219-3.62.596-7.495.684-11.229h4.979c2.486 11.696-.075 13.584 1.867 20.004.438 4.076-.456 8.31.859 12.281.71 13.915 2.152 15.948 2.875 21.74.403.395 1.201 1.192 1.604 1.587 2.183-6.047-.403-11.103 3.024-22.283.316 0 .964-.009 1.289-.009.07 1.339 1.748 15.516 3.112 20.688 3.189-6.785 3.21-47.072 3.2-54.051 9.432-.307 18.882-.272 28.323.026.079 1.105.202 2.297.833 3.27 1.219-.359 1.613-2.13 1.201-3.226.684 0 2.042.017 2.726.017.193 1.701.421 3.401.912 5.049.745 6.11-.754 12.422.877 18.417.622 4.944-.64 10.081.885 14.902.438 4.076-.464 8.31.859 12.272.587 5.786-.649 11.747 1.157 17.392.342.359 1.017 1.087 1.35 1.455.973-1.806 2.025-3.576 3.296-5.207 2.899 9.94 3.548 20.233 4.146 30.129 2.753-4.301 1.495-7.983 6.198-43.26a192.634 192.634 0 0 1 3.261-3.331c1.546-13.203 1.281-18.245 4.804-28.139.719 1.183 1.42 2.384 2.139 3.594 6.049 34.545 2.934 63.483 10.432 89.607-.114 5.067 1.359 9.993 1.052 15.06-.079 2.016.035 4.059.719 5.978.359 6.487.088 12.991.131 19.496-.026 3.813 1.113 7.53 1.017 11.361h1.639c.973-2.533 1.026-5.233.991-7.898-.096-2.682.728-5.26.842-7.907.149-3.305-.272-6.627.342-9.897 1.052-4.874.254-9.879.719-14.806 1.306-3.962.421-8.188.859-12.264 1.069-3.103.631-6.426.885-9.634.71-2.034.736-4.199.763-6.329.535-.92 1.087-1.841 1.657-2.753.009.693.009 2.078.009 2.77a247.32 247.32 0 0 1 1.674 1.595c1.881-6.653 1.973-16.337 2.025-17.208 1.324-3.962.421-8.188.868-12.273 1.508-4.821.263-9.949.885-14.902 1.534-5.119.21-10.537.868-15.779 1.438-4.777.43-9.836.684-14.736l.579.009c4.58 20.94-1.764 21.194 8.003 57.654.035 3.743.315 7.477 1.14 11.133.771 1.227 1.56 2.446 2.375 3.664 2.187-18.959.397-16.093 1.254-24.413 1.525-5.119.228-10.537.876-15.779 1.525-5.119.219-10.537.876-15.779 1.482-5.155.351-10.607.728-15.884 3.781-1.853 5.985-19.261 6.241-23.449a724.003 724.003 0 0 1 35.704 0c.018 2.314-.044 4.69.789 6.899 1.385 15.795 1.043 17.456 1.034 20.679.438-.386 1.297-1.14 1.727-1.525.313-2.188-.001-.959 1.21-4.953h1.157c7.495 34.264 1.885 96.567 10.537 107.57 4.66-9.896 5.508-48.83 5.75-50.764.339-1.036 7.792-66.458 7.846-67.323h.719c.315 5.479-.815 11.133.701 16.48.219 3.217-.175 6.522.833 9.634.096 1.35.175 2.709.263 4.076 1.113 1.78 2.262 3.55 3.349 5.356.07 1.85.202 3.717.806 5.487.237 3.208-.21 6.539.877 9.643.438 4.076-.456 8.301.868 12.264.64 5.233-.666 10.659.868 15.779.666 5.531-.693 11.238.877 16.656.617 10.342-.612 22.781.868 27.175.123 1.99.167 3.989.21 5.987.429.394 1.28 1.183 1.7 1.578 3.526-23.595 3.006-33.165 5.417-44.234l.526.026c2.215 9.395.757 4.828 3.042 12.623l1.517-1.516c2.464-9.857 5.395-72.486 5.408-73.354l.71.009c.044.447.131 1.341.167 1.779.605-.018 1.814-.07 2.411-.088 2.367 8.449 6.032 43.591 6.075 43.725.517 4.348-1.026 10.134 3.296 12.982 12.367-46.276 9.589-65.188 12.904-92.683a908.364 908.364 0 0 1 34.547-.018 94.477 94.477 0 0 0 1.008 3.375l5.242 57.935c2.528 35.686-1.458 8.139 4.62 49.809a235.61 235.61 0 0 0 1.639 1.56c.117-.869 4.225-26.319 4.576-34.135 3.883 7.547 1.348 7.067 5.198 13.465.955-.395 1.964-.64 3.016-.745a44.318 44.318 0 0 1 1.832 2.604l1.859.175a170.197 170.197 0 0 1 1.92-3.243c1.331-5.87 3.349-16.952 3.752-22.327l.71.018c.324 6.355-.877 12.877.666 19.11.64 5.242-.666 10.659.885 15.788.281 3.498-.272 7.109.842 10.511.105 1.525.175 3.059.263 4.593h1.683c.03-.868 2.321-25.659 4.655-35.354.359.368 1.069 1.113 1.42 1.481.018 2.183.026 4.409.763 6.496.184 2.928-.088 5.943.894 8.766.257 4.097-.504 3.463 2.165 21.81 1.771-3.524 1.604-7.469 1.744-11.299 1.411-4.55.307-9.362.868-14.026 1.604-5.996.149-12.299.877-18.409 1.63-6.285.114-12.877.868-19.285 1.587-5.698.158-11.711.868-17.532 1.56-6.399.324-13.114.693-19.645.429-.377 1.28-1.14 1.709-1.525-.026 2.393-.105 4.856.728 7.153.193 2.919-.096 5.943.885 8.757.456 4.076-.473 8.319.877 12.281.447 4.076-.473 8.31.877 12.264.368 3.796-.386 7.723.868 11.405 1.036 17.235 1.642 16.652 2.972 21.792.43.438 1.297 1.306 1.727 1.736.815-1.21 1.63-2.419 2.446-3.638 2.923-13.017 5.323-15.63 6.426-33.039 1.186-4.545 6.856-57.745 6.873-58.619 13.114-.333 26.237-.298 39.351 0-.07 25.539-.242 25.33.701 27.92.701 5.83-.737 11.843.868 17.541.622 4.944-.64 10.072.885 14.902.491 4.374-.517 8.898.859 13.158.545 12.053.783 6.687 1.964 16.629 1.858 1.052 3.901 1.981 5.076 3.892 10.959-1.859 6.983-29.405 13.724-64.092v-42.917a50.613 50.613 0 0 1-.488-3.102 133.277 133.277 0 0 1-1.578-2.823c-3.578-19.889-.465-3.857-2.901-38.229-.302-.87-2.483-19.751-2.542-20.46-.701-.894-1.359-1.788-2.051-2.665-2.62 8.857-4.816 32.1-4.97 37.869a109.917 109.917 0 0 1-2.56-3.62v-1.63c-.991-1.744-1.946-3.489-2.928-5.216l-1.745 2.06c-.955 0-1.885-.009-2.796-.009-.71-.71-1.394-1.42-2.069-2.13-.827-5.187-.922-3.934-1.999-19.093-1.271-3.673-.465-7.609-.877-11.405-1.201-3.384-.535-7.013-.877-10.51-.824-2.7-.728-5.54-1.166-8.293-.21-.359-.622-1.078-.833-1.438-.622-3.147-.456-6.373-.631-9.555-1.056-2.973-1.705-15.787-1.762-16.656-1.704-4.872-1.165-33.567-5.321-44.54l-.377.009c-.237.579-.701 1.736-.938 2.323-.401 3.921-11.044 109.35-11.711 112.52l-.71.009c-.251-7.498.009-3.82-1.201-9.651h-1.236c-1.98 7.546-1.844 6.61-2.121 9.073-.254.622-.771 1.867-1.026 2.481-1.078-.421-2.121-.85-3.156-1.271-3.451 12.972-2.154 26.149-5.549 58.154-5.163.21-10.326.272-15.472.009-2.367-4.585.263-10.046-1.674-14.788-5.048-49.685-2.675-22.48-9.038-64.474-.368.368-1.096 1.104-1.464 1.473-3.2 24.397-3.796 53.375-3.866 54.244-.902 2.444-.812 2.981-.71 23.546-4.628.21-9.257.202-13.877.009-.062-1.098-.753-10.145-3.41-19.96-1.609-6.088-2.241-34.338-5.531-45.399-.386.403-1.157 1.218-1.543 1.622l-2.428 17.821c-1.87 7.96-2.043 7.751-2.209 12.123a97.765 97.765 0 0 1-2.779 3.989c-1.026-.78-2.016-1.552-3.024-2.297-4.94 16.27-1.404 25.036-3.831 32.049-1.745.009-3.48.018-5.198.07-.149-4.059.605-8.249-.693-12.176-.596-4.664.579-9.494-.877-14.026-.543-4.365.509-8.897-.868-13.149-.245-2.98-.219-5.97-.184-8.959h-.798c-.097 1.525-.175 3.051-.281 4.585-1.043 3.042-.675 6.285-.666 9.441h-.885c-.454-35.146-2.288-72.71-9.792-140.65-.693-1.175-1.359-2.332-2.043-3.489-1.043 1.411-2.042 2.84-2.954 4.33-.744 4.308-.526 3.106-1.56 7.153-3.447 12.335-8.898 66.727-8.898 66.727-.359 3.498.307 7.135-.877 10.519-2.297 22.912.443 23.804-2.604 35.932-.184 2.639-.044 5.347-.894 7.89-.228 3.051-.158 6.101-.368 9.152-1.499 4.83-.237 9.949-.877 14.902-1.569 5.409-.167 11.124-.877 16.647-.517 1.683-.728 3.427-.912 5.172-6.645.202-13.289.254-19.925-.044.064-10.529-.526-4.443-.973-12.334l-.701.009c-.965 7.442-1.078 2.9-.973 12.272a227.627 227.627 0 0 0-3.506 0c.078-9.359-1.521-16.3-2.042-19.811-3.15 1.808-4.963 16.633-5.119 19.899a207.9 207.9 0 0 1-17.953-.035c-2.68-8.301.155-12.807-1.885-20.022-.649-4.944.631-10.072-.877-14.902-.28-3.629-.088-7.276-.35-10.905-.735-2.102-1.517-17.095-2.06-19.715-1.139-4.529-1.144-4.594-1.289-6.811a176.908 176.908 0 0 0-2.533-3.62c-.026-.394-.088-1.192-.114-1.587-1.131-2.095-2.358-4.129-3.813-6.005-.894.955-1.762 1.911-2.63 2.875-.491 0-1.473-.009-1.964-.009-.281.579-.833 1.744-1.113 2.323-.044 2.393.018 4.839-.78 7.127-.517 8.012.14 16.051-.359 24.054-1.709 4.69.307 9.827-1.403 14.517-.175 2.288-.202 4.585-.193 6.881-.43.377-1.297 1.131-1.727 1.516.009-2.682.245-5.453-.71-8.012-.596-4.655.57-9.485-.877-14.026-.438-5.382.079-10.782-.359-16.165-1.587-5.698-.149-11.712-.876-17.532-1.394-4.251-.333-8.784-.868-13.149-.903-2.358-.754-4.909-.728-7.381-.429-.368-1.297-1.122-1.727-1.49-.272 4.699.71 9.564-.701 14.131-.421 3.787.385 7.723-.877 11.396-.552 4.366.526 8.898-.877 13.149-.368 4.506.018 9.029-.35 13.535-1.438 4.769-.421 9.818-.701 14.709h-.868c-.009-2.867.289-5.829-.71-8.573-.245-3.34-.123-6.688-.351-10.028-1.349-3.85-2.513-33.865-5.347-39.938-4.096.324-4.685-1.352-7.083-16.191-.859-3.445-.482-7.022-.675-10.528-5.99-19.969-5.779-31.074-8.74-43.006-.412.377-1.236 1.14-1.648 1.516-4.042 68.84-13.256 161-13.438 161.87-6.241.263-12.483.281-18.724-.018-2.084-7.236.044-.063-2.472-11.072-1.704 1.184-2.333 2.852-3.27 11.072-6.54.281-13.088.272-19.627.035-.289-.605-.859-1.815-1.148-2.419-.438-5.567.754-11.308-.745-16.752-.657-4.953.623-10.081-.885-14.902-.316-3.918-.044-7.863-.351-11.781-1.175-3.384-.543-7.013-.868-10.519-1.201-3.375-.543-7.013-.877-10.519-1.105-3.094-.622-6.426-.885-9.634-.991-2.823-.675-5.838-.885-8.766-.64-1.823-.737-3.752-.807-5.654a246.458 246.458 0 0 0-1.648-1.49c-.023 1.517.6 9.192-2.016 20.118-2.092-3.749-2.373-11.288-2.568-14.727-.728-2.095-.719-4.33-.728-6.513a246.458 246.458 0 0 0-1.648-1.49c-.017 2.384.105 4.839-.745 7.118-1.625 13.049-1.923 57.246-2.113 60.871-1.254 3.524.009 7.513-2.086 10.808-3.055-13.191-3.982-41.883-4.041-42.752-.195-.562-2.542-23.345-2.577-24.352h-.684c-.074.87-1.059 13.181-1.639 14.709-.324 3.927-.052 7.863-.359 11.79-1.806 5.26.403 10.993-1.403 16.261-.333 4.444-.14 8.906-.175 13.359l-.85-.026c-.009-2.402-.035-4.804-.21-7.197-1.955-6.715.561-13.929-1.394-20.644-.421-5.093.061-10.212-.359-15.297-1.534-5.119-.202-10.546-.877-15.779-1.341-3.962-.386-8.196-.868-12.272-1.473-4.856-.368-10.02-.745-15.007-.281-.587-.85-1.753-1.131-2.332l-.342-.026c-2.383 6.384-1.846 9.872-4.725 15.043a390.075 390.075 0 0 0-3.217-.14c-.297 2.566-.568 6.574-3.226 12.614a120.406 120.406 0 0 1-3.173-1.385 52.757 52.757 0 0 0-2.568 3.226c-1.541 14.346-1.612 25.276-6.522 59.863-.64 1.394-1.613 2.568-2.902 3.384-.643-9.977-2.268-14.232-2.901-20.381l-1.587-1.482c-3.995 25.967-3.614 31.519-5.628 38.86l-.526.009c-5.004-29.024-4.245-32.066-6.592-40.692-1.964.307-3.165 1.56-3.463 3.506-1.455 1.648-2.858 3.34-4.068 5.172-.113.869-5.441 26.261-5.242 38.194-7.206.316-14.42.281-21.626 0-1.59-6.96-1.588-22.528-4.032-40.043-2.449 4.247-1.567 9.163-3.401 17.199h-.622c-.096-1.999-.167-4.024-.798-5.943-.193-2.463-.228-4.935-.403-7.398-.214-.596-2.541-21.185-2.551-21.389-.342-.368-1.034-1.096-1.376-1.464-2.624 7.092-1.98 15.125-3.936 40.762-.943 2.679-1.212 14.307-2.463 18.251l-.579-.009c-.263-.587-.797-1.762-1.069-2.349-.044-2.393.018-4.839-.798-7.127-.482-4.076.456-8.31-.877-12.264-.543-4.374.526-8.906-.876-13.149-.272-3.629-.088-7.276-.351-10.905-2.209-6.347 1.236-13.623-2.226-19.618-1.659 10.114-.922 6.007-1.289 12.115-1.324 3.962-.395 8.196-.868 12.272-1.648 4.401.228 9.24-1.394 13.64-.263 3.27-.202 6.557-.184 9.835l-.859.009c0-2.7.009-5.409-.202-8.091 0 0-1.894-14.814-3.559-26.64-1.025 2.161-2.494 6.353-3.419 11.457-.71 1.201-1.42 2.411-2.148 3.603-3.406-7.194-4.001-15.55-4.295-17.699-5.625-12.505-4.562-25.342-7.67-33.671h-.403c-3.503 9.782.435 1.884-6.005 38.317-.184.359-.552 1.087-.728 1.446-.324 1.727-.57 3.463-.841 5.198-.947 3.717-.395 7.583-.719 11.361-1.289 3.664-.473 7.6-.885 11.396-.594 1.9-1.634 10.122-1.718 10.993-1.122.745-2.244 1.473-3.349 2.218-.386 5.626.13 1.269-1.175 7.714-3.953.175-7.907.175-11.852.044-.105-2.051-.158-4.129-.842-6.075-.412-3.796.395-7.732-.885-11.396-.333-3.498.307-7.127-.859-10.51-.491-6.548.123-13.123-.368-19.671 0 0-5.516-54.514-8.845-67.306h-1.473c.015 4.792-.944 14.581-1.595 16.463-.351 3.498.307 7.136-.877 10.519-.491 4.076.465 8.31-.877 12.272-.491 4.076.456 8.31-.877 12.272-.28 3.629-.079 7.276-.35 10.905-1.262 3.673-.465 7.609-.868 11.396-1.289 3.664-.473 7.6-.877 11.396-1.289 3.664-.482 7.6-.877 11.387-1.429 4.243-.351 8.784-.894 13.149-.517 1.683-.728 3.427-.912 5.163-3.629.123-7.249.123-10.861.009a501.963 501.963 0 0 0-1.078-3.357c-.554-15.475.663-21.354-.815-25.474-.498-7.528-.096-59.18-5.654-78.719-6.429-1.051-3.223-11.691-7.057-21.424l-.438.018c-4.443 43.319-2.365 60.076-3.857 78.211-1.63 4.401.21 9.231-1.385 13.64-.184 2.463-.219 4.935-.395 7.399-.666 2.007-.736 4.138-.824 6.241-.245.64-.745 1.928-.99 2.568-.351-.359-1.061-1.096-1.411-1.455-.134-6.652-.225-.761-1.166-13-1.403-3.839.079-8.056-1.359-11.887-.342-4.436-.149-8.897-.184-13.342h-1.622c-.042.869-1.142 13.049-1.709 14.709-.246 3.34-.114 6.688-.351 10.028-1.402 4.243-.342 8.775-.877 13.14-1.473 4.541-.281 9.371-.885 14.026-.999 2.761-.728 5.724-.71 8.599-.438-.009-1.297-.009-1.736-.018-.091-1.768-2.814-61.555-2.814-61.555-.038-.109-5.456-50.812-6.908-56.26-.359.386-1.078 1.148-1.446 1.534-1.054 4.726-.995 2.579-1.157 9.371-.298-.026-.885-.07-1.183-.096-.938-1.324-1.928-2.612-2.919-3.892-2.823 14.314-4.439 36.549-5.97 44.873l-.736 1.438a107.929 107.929 0 0 0-.754 4.103h-.657c.028-7.733-1.59-17.163-2.849-24.896a113.18 113.18 0 0 0-1.516 2.647c-.018 2.972.315 6.049-.71 8.906-.605 4.655.561 9.485-.876 14.026-.754 6.11.71 12.404-.868 18.409-.131 1.63-.202 3.279-.254 4.918a224.56 224.56 0 0 0-1.613 2.814c-.987 9.186-.327-1.6-1.14 11.931-1.245 3.673-.473 7.6-.859 11.396-1.201 3.34-.657 6.934-.701 10.397-6.732.254-13.456.298-20.179.009-.044-3.471.473-7.057-.684-10.405-.649-4.944.622-10.072-.885-14.894-.307-3.927-.052-7.863-.351-11.782-1.613-5.996-.149-12.316-.868-18.435-1.339-5.048-.518-5.014-3.603-14.981-1.154-4.75-.731-4.479-2.621-9.59-.351.368-1.069 1.105-1.429 1.473-3.59 28.719-2.637 24.356-5.26 29.112-.601 4.918-1.642 5.918-2.831 13-.71 1.183-1.403 2.358-2.113 3.533-.281-.684-.833-2.051-1.113-2.735-.247-4.495-.408-4.871-1.166-8.196-.386 0-1.175 0-1.569-.009-.044 1.359-.105 2.717-.158 4.076-3.067-6.436-.91-7.799-1.823-18.286-1.446-4.541-.272-9.371-.868-14.026-1.026-2.849-.71-5.908-.745-8.871-.289-.587-.868-1.744-1.166-2.332h-.473c-.83 6.893-1.628 7.466-1.876 15.209-.421-.377-1.262-1.131-1.683-1.499-.009-2.306-.035-4.602-.193-6.89-1.183-3.384-.535-7.013-.877-10.51-1.192-3.384-.535-7.022-.868-10.519-1.201-3.384-.543-7.022-.885-10.519l-3.515-26.666c-.324-.368-.982-1.096-1.306-1.455-2.09 10.391-.875 47.421-5.628 75.94a225.18 225.18 0 0 1-1.56-1.499c-2.507-9.819-2.672-28.963-2.717-29.831a229.073 229.073 0 0 1-1.657-2.682c-.07 2.13-.053 4.313-.806 6.347-.412 3.787.395 7.723-.859 11.396-.71 5.531.675 11.247-.877 16.656-.473 5.961.096 11.957-.368 17.918-1.613 5.996-.123 12.299-.877 18.409-1.446 4.532-.281 9.362-.868 14.017-1.096 3.051-.701 6.32-.701 9.485h-5.251c-.333-5.488.78-11.133-.701-16.489-.719-5.531.692-11.256-.885-16.656-.543-4.365.508-8.898-.868-13.149-.219-3.051-.158-6.11-.368-9.152-.622-2.007-.771-4.103-.947-6.171-3.738-17.029-1.37-12.706-7.022-45.645-4.711-15.28-4.495-46.356-6.978-58.128a105.52 105.52 0 0 1-1.28-1.464c-.28 1.481-.544 2.972-.85 4.444-.085.868-3.823 36.378-5.198 42.901-1.571 7.218-1.593 19.441-2.788 22.87-.351 3.498.307 7.127-.877 10.51-.491 4.076.465 8.31-.877 12.272-.596 4.655.579 9.485-.877 14.026-.342 4.216-.009 8.451-.351 12.658-1.464 4.541-.272 9.371-.885 14.026-.561 1.727-.719 3.533-.868 5.33-.368-.351-1.105-1.052-1.473-1.411-3.32 19.616-1.334 18.132-1.867 29.296-13.421.193-26.842.28-40.254-.018-.494-1.729-3.729-21.553-4.655-33.583-1.297-3.559-.026-7.46-1.359-11.01-.193-2.761-.184-5.523-.368-8.275-1.578-5.707-.14-11.711-.877-17.532-.529-1.612-1.765-12.284-1.858-13.158-1.105-4.006-.342-8.188-.763-12.264-1.657-6.566-.105-13.465-.885-20.162-1.639-6.566-.105-13.465-.877-20.162-1.613-5.987-.131-12.29-.877-18.4-1.455-4.541-.28-9.371-.868-14.026-.85-2.288-.763-4.742-.789-7.127-.281-.587-.824-1.753-1.096-2.332h-.403c-.551 5.654-1.974 21.699-6.867 143.01v84.684l4.281-41.149c.855-2.511.714-5.184.706-7.788z"/></svg>